<svg id="Layer_1" data-name="Layer 1" xmlns="http://www.w3.org/2000/svg" viewBox="0 0 205.5 191.07"><defs><style>.cls-1{fill:#ec1e24;}</style></defs><title>heart_filled</title><path class="cls-1" d="M523.62,259.44c-3-33-26.36-57-55.61-57a55.31,55.31,0,0,0-47.36,27.28c-9.94-17-27.06-27.28-46.22-27.28-29.26,0-52.62,23.95-55.62,57-0.25,1.47-1.22,9.13,1.74,21.65A92.7,92.7,0,0,0,349,328.56l71.59,65,72.81-65a92.9,92.9,0,0,0,28.47-47.49c2.95-12.5,2-20.19,1.73-21.65h0Z" transform="translate(-318.47 -202.47)"/></svg>