<svg id="Layer_1" data-name="Layer 1" xmlns="http://www.w3.org/2000/svg" viewBox="0 0 245.92 228.65"><defs><style>.cls-1{fill:#fff;}.cls-2{fill:#ccc;}</style></defs><title>heart_empty</title><path class="cls-1" d="M199.1,329.5A104.65,104.65,0,0,1,167,275.95c-3.37-14.26-2.15-22.5-2-23.39,3.34-36.61,28.66-62.84,60.26-62.84,20.4,0,39,11,49.8,29.48l5.45,9.33,5.54-9.28c10.9-18.22,30.52-29.54,51.2-29.54,31.6,0,56.92,26.23,60.19,62.36,0.29,1.93,1.31,10.17-1.93,23.87-4.8,20.35-15.92,38.87-32.14,53.57l-82.8,73.88Z" transform="translate(-158.25 -183.33)"/><path class="cls-2" d="M337.21,196.09c28.23,0,50.87,23.79,53.84,56.56l0,0.42,0.07,0.42c0.05,0.32,1.19,7.91-1.89,21a98.38,98.38,0,0,1-30.14,50.24L280.56,394.8l-77.19-70.06a98.2,98.2,0,0,1-30.2-50.27c-3.13-13.26-1.93-20.79-1.92-20.86l0.08-.49,0-.48c3-32.77,25.62-56.56,53.84-56.56,18.11,0,34.66,9.84,44.29,26.32l10.9,18.66,11.08-18.55c9.75-16.31,27.26-26.44,45.71-26.44m0-12.77A66.19,66.19,0,0,0,280.53,216c-11.89-20.37-32.38-32.65-55.31-32.65-35,0-63,28.66-66.56,68.17-0.3,1.76-1.45,10.93,2.08,25.91a110.94,110.94,0,0,0,34.06,56.81L280.49,412l87.13-77.74a111.18,111.18,0,0,0,34.06-56.83c3.53-15,2.35-24.16,2.07-25.91-3.58-39.51-31.55-68.17-66.55-68.17h0Z" transform="translate(-158.25 -183.33)"/></svg>