<svg id="Layer_1" data-name="Layer 1" xmlns="http://www.w3.org/2000/svg" viewBox="0 0 221.01 221.03"><defs><style>.cls-1{fill:#fff;}.cls-2{fill:#dbdbdb;}</style></defs><title>smile_blank</title><path class="cls-1" d="M421.17,193.39c-57.18,0-104,46.83-104,104s46.83,104,104,104,104-46.83,104-104-46.83-104-104-104h0Zm36.42,62.42A15.59,15.59,0,1,1,442,271.39a16,16,0,0,1,15.59-15.59h0Zm-72.83,0a15.59,15.59,0,1,1-15.59,15.59,16,16,0,0,1,15.59-15.59h0Zm36.42,104a62,62,0,0,1-58.25-41.59H479.42a62,62,0,0,1-58.25,41.59h0Zm0,0" transform="translate(-310.66 -186.88)"/><path class="cls-2" d="M421.17,407.91A110.51,110.51,0,1,1,531.67,297.4,110.64,110.64,0,0,1,421.17,407.91Zm0-208a97.51,97.51,0,1,0,97.5,97.51A97.62,97.62,0,0,0,421.17,199.89Zm0,166.43a68.33,68.33,0,0,1-64.38-46l-3-8.63H488.56l-3,8.63A68.33,68.33,0,0,1,421.17,366.32Zm-48.25-41.59a55,55,0,0,0,96.51,0H372.92Zm84.67-31.24a22.09,22.09,0,1,1,22.09-22.09A22.39,22.39,0,0,1,457.59,293.48Zm0-31.18a9.09,9.09,0,1,0,9.09,9.08A9.44,9.44,0,0,0,457.59,262.31Zm-72.83,31.18a22.09,22.09,0,1,1,22.09-22.09A22.39,22.39,0,0,1,384.76,293.48Zm0-31.18a9.09,9.09,0,1,0,9.08,9.08A9.45,9.45,0,0,0,384.76,262.31Z" transform="translate(-310.66 -186.88)"/></svg>