<svg id="Layer_1" data-name="Layer 1" xmlns="http://www.w3.org/2000/svg" viewBox="0 0 224.05 224.05"><defs><style>.cls-1{fill:#f7981d;}</style></defs><title>smile_filled</title><path class="cls-1" d="M421.42,186c-61.59,0-112,50.44-112,112s50.44,112,112,112,112-50.44,112-112S483,186,421.42,186h0Zm39.22,67.23A16.79,16.79,0,1,1,443.85,270a17.19,17.19,0,0,1,16.79-16.79h0Zm-78.45,0A16.79,16.79,0,1,1,365.4,270a17.18,17.18,0,0,1,16.79-16.79h0Zm39.22,112c-29.1,0-53.77-19-62.74-44.8H484.15c-9,25.75-33.64,44.8-62.73,44.8h0Zm0,0" transform="translate(-309.39 -185.98)"/></svg>