<svg id="Layer_1" data-name="Layer 1" xmlns="http://www.w3.org/2000/svg" viewBox="0 0 158.42 150.67"><defs><style>.cls-1{fill:#f6eb0f;}.cls-2{fill:#f90;}</style></defs><title>star_filled</title><polygon class="cls-1" points="44.27 94.64 9.34 60.58 57.62 53.57 79.21 9.82 100.8 53.57 149.08 60.58 114.15 94.64 122.4 142.72 79.21 120.03 36.03 142.72 44.27 94.64"/><path class="cls-2" d="M421.23,241.64l16.68,33.8,2,4.1,4.52,0.66,37.31,5.42-27,26.31-3.27,3.19,0.77,4.5,6.37,37.15-33.37-17.54-4-2.13-4,2.13-33.37,17.54,6.37-37.15,0.77-4.5-3.27-3.19-27-26.31L398,280.2l4.52-.66,2-4.1,16.68-33.8m0-19.64-24.48,49.6-54.73,8,39.61,38.61-9.35,54.51,49-25.74,49,25.74-9.35-54.51,39.61-38.61-54.73-8L421.23,222h0Z" transform="translate(-342.02 -222)"/></svg>