<svg id="Layer_1" data-name="Layer 1" xmlns="http://www.w3.org/2000/svg" viewBox="0 0 171.04 162.67"><defs><style>.cls-1{fill:#fff;}.cls-2{fill:#ccc;}</style></defs><title>star_empty</title><polygon class="cls-1" points="47.8 102.18 10.08 65.41 62.21 57.84 85.52 10.6 108.83 57.84 160.96 65.41 123.24 102.18 132.14 154.09 85.52 129.59 38.9 154.09 47.8 102.18"/><path class="cls-2" d="M421.48,237l18,36.5,2.18,4.42,4.88,0.71,40.28,5.85-29.14,28.41-3.53,3.44,0.83,4.86,6.88,40.11-36-18.94-4.37-2.3-4.37,2.3-36,18.94L388,321.15l0.83-4.86-3.53-3.44-29.14-28.41,40.28-5.85,4.88-.71,2.18-4.42,18-36.5m0-21.2L395.05,269.3,336,277.89l42.76,41.68-10.09,58.85,52.85-27.79,52.85,27.79-10.09-58.85L507,277.89l-59.09-8.59-26.43-53.55h0Z" transform="translate(-335.96 -215.75)"/></svg>