<svg id="Layer_1" data-name="Layer 1" xmlns="http://www.w3.org/2000/svg" viewBox="0 0 166.11 186.89"><defs><style>.cls-1{fill:#6cf;}</style></defs><title>thumn_filled</title><path class="cls-1" d="M488.88,307.86A14.6,14.6,0,0,0,504,293.79c0.35-8.14-5.28-15.46-13.28-15.81l-53.15-6.67s11.08-18.53,11.08-46c0-18.3-13.07-20.76-20.76-20.76-6,0-7.68,11.72-7.68,11.72h0c-1.37,7.51-3.15,14.08-9.35,26.16-6.94,13.54-16.38,12.27-27.41,24.33a62.5,62.5,0,0,0-7.11,9.95,3.36,3.36,0,0,0-.59,1c-0.23.54-.5,0.91-0.74,1.4-0.42.77-.84,1.55-1.25,2.36-6.83,6.83-17.46,6.13-22,6.13-9.08,0-13.84,5.28-13.84,13.84v63.28c0,9.61,3.93,12.85,13.85,12.85h13.84c7,0,12.43,4,20.76,6.92,11.42,4,28.47,6.93,57.86,6.93l21.08,0a16.78,16.78,0,0,0,11.63-4.92,8.89,8.89,0,0,0,2.68-5.41c0.08-.45.16-2.33,0.15-2.59,0.37-8.3-4.65-11.3-7.49-12.25,0.08,0,0-.1.18-0.09l9,0.4c8,0.36,15.91-5.4,15.91-15.21,0-8.13-6.59-13.87-14.58-14.26l4.78,0.22a14.76,14.76,0,0,0,1.29-29.48h0Zm0,0" transform="translate(-337.92 -204.56)"/></svg>