<svg id="Layer_1" data-name="Layer 1" xmlns="http://www.w3.org/2000/svg" viewBox="0 0 180.62 201.31"><defs><style>.cls-1{fill:#fff;}.cls-2{fill:#ccc;}</style></defs><title>thumn_empty</title><path class="cls-1" d="M488.65,307.91a14.55,14.55,0,0,0,15.09-14c0.35-8.12-5.26-15.41-13.24-15.76l-53-6.65s11-18.47,11-45.84c0-18.24-13-20.69-20.7-20.69-6,0-7.65,11.68-7.65,11.68h0c-1.37,7.49-3.14,14-9.32,26.08-6.91,13.5-16.33,12.23-27.33,24.26a62.3,62.3,0,0,0-7.09,9.91,3.35,3.35,0,0,0-.59,1c-0.23.53-.5,0.9-0.74,1.4-0.42.77-.84,1.55-1.24,2.36-6.81,6.81-17.4,6.11-21.92,6.11-9.05,0-13.79,5.26-13.79,13.8v63.08c0,9.58,3.92,12.81,13.8,12.81h13.8c6.94,0,12.39,4,20.7,6.9,11.38,3.94,28.38,6.91,57.67,6.91l21,0a16.73,16.73,0,0,0,11.59-4.9,8.86,8.86,0,0,0,2.67-5.39c0.08-.45.16-2.33,0.15-2.58,0.37-8.27-4.63-11.27-7.46-12.21,0.08,0,0-.1.18-0.09l9,0.4c8,0.36,15.86-5.39,15.86-15.16,0-8.11-6.57-13.83-14.53-14.22l4.77,0.22a14.71,14.71,0,0,0,1.28-29.39h0Zm0,0" transform="translate(-330.67 -197.42)"/><path class="cls-2" d="M465.15,398.73h-21c-26.59,0-45.7-2.32-60.12-7.31-3-1.06-5.67-2.23-8.14-3.33-4.11-1.83-7.08-3.16-10.1-3.16H352c-14.15,0-21.32-6.84-21.32-20.33V301.51c0-12.94,8.37-21.31,21.31-21.31,5.22,0.1,11.76.12,15.89-3.26l2.25-3.83L370,273a70.8,70.8,0,0,1,8-11.17,62.65,62.65,0,0,1,14.88-11.72c5-3.06,8.33-5.09,11.3-10.89,6.08-11.86,7.46-17.65,8.61-24,1.86-11.21,7.48-17.88,15.06-17.88,17.66,0,28.22,10.55,28.22,28.21a109.8,109.8,0,0,1-7.41,39.66l42.78,5.36c11.17,0.47,20.33,11.05,19.81,23.53a22.22,22.22,0,0,1-6.16,14.47,22.3,22.3,0,0,1-3.6,31.45,21.3,21.3,0,0,1,3.14,11.18,22.41,22.41,0,0,1-6.81,16.39,22.74,22.74,0,0,1-11.08,5.8,34.06,34.06,0,0,1,.07,8.64,16.37,16.37,0,0,1-4.92,9.64A24,24,0,0,1,465.15,398.73ZM353,295.24c-5.69,0-7.32,1.65-7.32,6.27v63.08c0,4.9,0,5.3,6.29,5.3h13.8c6.22,0,11.3,2.26,16.22,4.45,2.13,1,4.4,2,7,2.88,12.59,4.34,30.65,6.47,55.18,6.47h21a9.19,9.19,0,0,0,6.41-2.83l0.48-2.48c0.16-3.83-1.17-4.74-2.35-5.14l0.66-8.4-4.3-3.17,4.8-3,0.07,0.5,1.35-.69L481.6,359a8.19,8.19,0,0,0,5.84-2.13,7.35,7.35,0,0,0,2.17-5.53c0-4.36-3.83-6.55-7.38-6.72l0.72-15,4.77,0.22a7.55,7.55,0,0,0,7.24-6.88,7.13,7.13,0,0,0-6.66-7.5l0.7-15a6.61,6.61,0,0,0,4.9-1.8,7.14,7.14,0,0,0,2.33-5c0.16-3.68-2.11-7.76-6.06-7.93l-53.59-6.7-5.53-11.29c0.1-.18,10-17.25,10-42,0-8.89-3.45-12.78-11.81-13.15a19.09,19.09,0,0,0-1.59,5.17c-1.61,8.81-3.76,16.13-10.09,28.47-4.89,9.57-11,13.28-16.84,16.86-3.91,2.39-7.61,4.65-11.62,9a56.18,56.18,0,0,0-6.17,8.67l-0.23.31a14.32,14.32,0,0,1-.72,1.39l-2.77,4.53c-8.52,8.52-20.41,8.36-26.16,8.32h0Z" transform="translate(-330.67 -197.42)"/></svg>