<svg id="Layer_1" data-name="Layer 1" xmlns="http://www.w3.org/2000/svg" viewBox="0 0 16 16"><defs><style>.cls-1{fill:#666;}</style></defs><title>other</title><path class="cls-1" d="M425,290.11h-8.86a3.58,3.58,0,0,0-3.57,3.57v8.86a3.58,3.58,0,0,0,3.57,3.57H425a3.58,3.58,0,0,0,3.57-3.57v-8.86A3.58,3.58,0,0,0,425,290.11Zm-3.77,11.72h-1.7v-1.68h1.7v1.68Zm1.9-5.25c0,1.33-.92,1.88-2.07,2.11l-0.12.64h-1.07l-0.24-1.7,0.05-.05c1.32-.05,1.84-0.4,1.84-1v0a0.8,0.8,0,0,0-1-.75,2.16,2.16,0,0,0-1.57.72l-1-1.06a3.31,3.31,0,0,1,2.57-1.13c1.51,0,2.54.78,2.54,2.17v0Z" transform="translate(-412.52 -290.11)"/></svg>