<?xml version="1.0" standalone="no"?>
<!DOCTYPE svg PUBLIC "-//W3C//DTD SVG 1.1//EN" "http://www.w3.org/Graphics/SVG/1.1/DTD/svg11.dtd" >
<svg xmlns="http://www.w3.org/2000/svg">
<metadata>Generated by IcoMoon</metadata>
<defs>
<font id="canvas" horiz-adv-x="1024">
<font-face units-per-em="1024" ascent="960" descent="-64" />
<missing-glyph horiz-adv-x="1024" />
<glyph unicode="&#x20;" horiz-adv-x="512" d="" />
<glyph unicode="&#xe900;" glyph-name="canvas-radio-filled" d="M512 891.733c245.067 0 443.733-198.666 443.733-443.733s-198.666-443.733-443.733-443.733c-245.067 0-443.733 198.666-443.733 443.733v0c0.323 244.937 198.796 443.41 443.702 443.733h0.031zM512 960v0c-282.77 0-512-229.23-512-512v0 0c0-282.77 229.23-512 512-512v0 0c282.77 0 512 229.23 512 512v0 0c0 282.77-229.23 512-512 512v0zM512 732.444c157.094 0 284.444-127.35 284.444-284.444s-127.35-284.444-284.444-284.444c-157.094 0-284.444 127.35-284.444 284.444s127.35 284.444 284.444 284.444z" />
<glyph unicode="&#xe901;" glyph-name="canvas-refresh" d="M73.143 400.457c0.69-25.046 3.321-48.984 7.757-72.284l-0.443 2.798c3.519-16.816 18.223-29.265 35.834-29.265 0.259 0 0.518 0.003 0.776 0.008l-0.039-0.001c20.599 1.014 36.917 17.962 36.917 38.722 0 1.821-0.126 3.613-0.369 5.367l0.023-0.203c-3.093 19.203-4.86 41.341-4.86 63.891 0 35.743 4.439 70.449 12.797 103.597l-0.623-2.916c24.101 101.996 91.316 184.801 180.874 229.504l1.983 0.896c47.854 24.593 104.417 39.008 164.347 39.008 103.47 0 196.903-42.969 263.429-112.037l0.109-0.114h-113.371c-19.588-1.447-35.125-16.983-36.564-36.441l-0.008-0.13c1.447-19.588 16.983-35.125 36.441-36.564l0.13-0.008h182.857c19.588 1.447 35.125 16.983 36.564 36.441l0.008 0.13v182.857c0 20.198-16.374 36.571-36.571 36.571s-36.571-16.374-36.571-36.571v0-76.8c-79.283 69.697-183.931 112.226-298.512 112.226-26.319 0-52.114-2.244-77.204-6.551l2.688 0.382c-205.512-40.050-358.504-218.636-358.504-432.955 0-3.361 0.038-6.713 0.112-10.057l-0.009 0.497zM182.857 155.429v-146.286c1.447-19.588 16.983-35.125 36.441-36.564l0.13-0.008c19.588 1.447 35.125 16.983 36.564 36.441l0.008 0.13v47.543c71.042-51.657 159.753-83.027 255.739-84.112l0.261-0.002c242.374 0 438.857 196.483 438.857 438.857v0 40.229c-1.92 18.563-17.478 32.915-36.388 32.915-0.064 0-0.129 0-0.193 0h0.010c-0.054 0-0.119 0-0.183 0-20.198 0-36.571-16.374-36.571-36.571 0-1.288 0.067-2.561 0.197-3.815l-0.013 0.157c0.775-10.221 1.217-22.139 1.217-34.159 0-24.075-1.772-47.735-5.192-70.859l0.318 2.619c-33.167-162.055-168.961-284.157-335.263-296.159l-1.194-0.069c-7.735-0.59-16.753-0.926-25.849-0.926-82.802 0-159.098 27.852-220.032 74.698l0.853-0.63h73.143c20.198 0 36.571 16.374 36.571 36.571s-16.374 36.571-36.571 36.571v0h-146.286c-19.588-1.447-35.125-16.983-36.564-36.441l-0.008-0.13z" />
<glyph unicode="&#xe902;" glyph-name="canvas-search" d="M982.501 43.789l-239.293 248.455c58.874 69.889 94.649 160.922 94.649 260.312 0 223.835-181.454 405.288-405.288 405.288s-405.288-181.454-405.288-405.288c0-223.835 181.454-405.288 405.288-405.288 0.072 0 0.144 0 0.216 0h-0.011c0.278-0.001 0.607-0.001 0.936-0.001 86.758 0 167.054 27.665 232.548 74.654l-1.198-0.817 240.909-250.611c9.738-9.93 23.274-16.104 38.253-16.168h0.012c14.192 0.051 27.083 5.579 36.678 14.579l-0.029-0.027c9.37 9.684 15.144 22.896 15.144 37.457s-5.774 27.773-15.158 37.472l0.014-0.015zM432.775 852.211c0.638 0.005 1.393 0.008 2.148 0.008 165.792 0 300.194-134.401 300.194-300.194s-134.401-300.194-300.194-300.194c-165.792 0-300.194 134.401-300.194 300.194 0 0.755 0.003 1.51 0.008 2.264l-0.001-0.116c1.51 163.991 134.047 296.528 297.894 298.037l0.144 0.001z" />
<glyph unicode="&#xe903;" d="M512 928.142c-265.175 0-480.142-214.967-480.142-480.142s214.967-480.142 480.142-480.142c265.175 0 480.142 214.967 480.142 480.142v0c-0.966 264.786-215.356 479.176-480.049 480.142h-0.093zM682.667 639.716c0.168 0.001 0.367 0.002 0.567 0.002 39.902 0 72.249-32.347 72.249-72.249s-32.347-72.249-72.249-72.249c-39.902 0-72.249 32.347-72.249 72.249 0 0.199 0.001 0.398 0.002 0.597v-0.030c0.93 39.208 32.472 70.75 71.592 71.678l0.088 0.002zM347.022 639.716c38.658-1.572 69.403-33.292 69.403-72.193 0-39.902-32.347-72.249-72.249-72.249s-72.249 32.347-72.249 72.249c0 0.18 0.001 0.36 0.002 0.54v-0.028c0.941 39.402 32.797 71.060 72.19 71.679l0.059 0.001zM517.689 160.142c-123.728 0.175-228.925 79.32-267.903 189.724l-0.613 1.991h537.031c-39.62-112.544-145.020-191.765-268.922-191.765-1.857 0-3.711 0.018-5.56 0.053l0.277-0.004z" />
<glyph unicode="&#xe904;" d="M512-64c-282.77 0-512 229.23-512 512s229.23 512 512 512c282.77 0 512-229.23 512-512v0c0-282.77-229.23-512-512-512v0zM512 895.716c-247.266 0-447.716-200.449-447.716-447.716s200.449-447.716 447.716-447.716c247.266 0 447.716 200.449 447.716 447.716v0c-0.324 247.137-200.58 447.392-447.685 447.716h-0.031zM512 127.716c-137.896 0.379-255.083 88.624-298.551 211.68l-0.684 2.222-14.791 42.098h625.778l-14.791-42.098c-43.896-124.57-159.979-212.51-296.792-213.901l-0.168-0.001zM292.978 320c43.984-76.928 125.547-127.934 219.022-127.934s175.038 51.006 218.373 126.705l0.649 1.23zM682.667 463.929c-57.497 0-104.107 46.61-104.107 104.107s46.61 104.107 104.107 104.107c57.497 0 104.107-46.61 104.107-104.107v0c-0.635-57.239-46.867-103.472-104.046-104.106l-0.060-0.001zM682.667 607.858c-21.747-0.321-39.253-18.025-39.253-39.818 0-21.993 17.829-39.822 39.822-39.822 21.992 0 39.82 17.827 39.822 39.818v0c-0.917 21.812-18.526 39.223-40.334 39.821l-0.057 0.001zM344.178 463.929c-0.169-0.001-0.369-0.002-0.569-0.002-57.497 0-104.107 46.61-104.107 104.107s46.61 104.107 104.107 104.107c57.496 0 104.106-46.609 104.107-104.105v0c-0.934-56.919-46.668-102.852-103.42-104.105l-0.118-0.002zM344.178 607.858c-21.993 0-39.822-17.829-39.822-39.822s17.829-39.822 39.822-39.822c21.993 0 39.822 17.829 39.822 39.822v0c-0.899 21.622-18.2 38.923-39.739 39.819l-0.083 0.003z" />
<glyph unicode="&#xe905;" horiz-adv-x="1023" d="M105.755 198.681h375.827l320.675-262.112v262.112h113.715c0.171-0.001 0.373-0.002 0.575-0.002 59.035 0 106.892 47.857 106.892 106.892 0 0.4-0.002 0.8-0.007 1.2l0.001-0.061v545.83c0.001 0.171 0.002 0.373 0.002 0.575 0 58.635-47.212 106.244-105.695 106.885l-0.061 0.001h-811.922c-58.544-0.642-105.756-48.25-105.756-106.886 0-0.202 0.001-0.404 0.002-0.606v0.031-545.83c-0.004-0.34-0.006-0.741-0.006-1.143 0-58.637 47.215-106.247 105.7-106.885l0.060-0.001z" />
<glyph unicode="&#xe906;" horiz-adv-x="1023" d="M188.766 530.727c15.102-8.465 32.983-13.828 52.026-14.772l0.283-0.011c18.194 0 26.154 6.823 26.154 16.489s-6.254 14.783-28.997 22.174c-39.8 13.646-56.857 35.82-56.857 56.857 1.706 38.094 32.977 64.249 80.737 64.249 1.021 0.027 2.223 0.043 3.428 0.043 19.297 0 37.663-3.989 54.317-11.187l-0.888 0.342-10.803-42.074c-12.129 6.868-26.579 11.044-41.978 11.37l-0.097 0.002c-14.783 0-23.311-6.254-23.311-15.92s7.391-14.214 31.84-22.174c36.957-13.077 52.309-31.84 52.877-60.269s-30.703-61.974-86.423-61.974c-1.041-0.029-2.265-0.045-3.494-0.045-21.498 0-41.815 5.055-59.827 14.042l0.778-0.351z" />
<glyph unicode="&#xe907;" horiz-adv-x="1023" d="M362.181 610.328c0 24.449 0 45.486 0 62.543h51.172v-26.723c12.133 18.59 32.836 30.705 56.367 30.705 0.172 0 0.344-0.001 0.516-0.002h-0.026c0.546 0.019 1.188 0.030 1.833 0.030 22.748 0 42.376-13.359 51.466-32.66l0.147-0.347c6.647 9.654 14.99 17.634 24.667 23.677l0.35 0.204c9.729 5.329 21.316 8.463 33.635 8.463 2.974 0 5.906-0.183 8.784-0.537l-0.345 0.035c37.526 0 65.954-26.154 65.954-84.149v-113.715h-56.857v106.323c0 27.86-9.097 44.349-28.997 44.349-13.042-0.39-23.972-9.008-27.8-20.824l-0.060-0.213c-0.282-2.389-0.444-5.156-0.444-7.96s0.161-5.571 0.475-8.292l-0.031 0.332v-113.715h-56.857v109.166c0 25.017-9.097 41.506-27.86 41.506-13.551-0.296-24.876-9.492-28.378-21.962l-0.051-0.212c-0.524-2.221-0.824-4.771-0.824-7.391s0.3-5.17 0.869-7.618l-0.044 0.226v-113.715h-56.857z" />
<glyph unicode="&#xe908;" horiz-adv-x="1023" d="M703.893 530.727c15.085-8.541 32.982-13.916 52.054-14.774l0.255-0.009c18.194 0 25.586 6.823 25.586 16.489s-5.686 14.783-28.429 22.174c-40.369 13.646-56.857 35.82-56.857 56.857 0 36.389 30.703 63.68 79.032 63.68 1.021 0.027 2.223 0.043 3.428 0.043 19.297 0 37.663-3.989 54.317-11.187l-0.888 0.342-10.803-42.074c-12.148 6.784-26.581 10.947-41.947 11.369l-0.127 0.003c-14.783 0-23.311-6.254-23.311-15.92s7.391-14.214 31.272-22.174c36.957-13.077 52.877-31.84 52.877-60.269s-28.429-63.112-84.149-63.112c-0.906-0.021-1.972-0.033-3.042-0.033-21.843 0-42.507 5.048-60.889 14.041l0.819-0.362z" />
<glyph unicode="&#xe909;" d="M512 149.902l-271.36-150.187 51.769 318.009-221.298 227.556 306.062 46.649 134.827 287.858 134.827-287.858 306.062-46.649-221.298-227.556 51.769-318.009-271.36 150.187z" />
<glyph unicode="&#xe90a;" d="M512 799.573l96.142-205.938 17.636-31.858 35.84-5.689 222.436-34.133-187.164-191.716 5.689-34.133 36.978-232.107-227.556 125.156-32.996-18.773-194.56-106.382 37.547 231.538 5.689 34.133-23.893 24.462-162.133 167.253 222.436 34.133 34.133 6.258 15.929 32.427 97.849 205.369zM512 960l-158.151-337.351-353.849-54.044 256-262.258-60.302-370.347 316.302 174.649 316.302-174.649-60.302 370.347 256 262.258-353.849 56.889-158.151 334.507z" />
<glyph unicode="&#xe90b;" d="M867.556 396.8c0.082 0 0.179 0 0.276 0 43.044 0 77.938 34.894 77.938 77.938 0 39.732-29.731 72.521-68.16 77.33l-0.382 0.039-275.911 34.702c35.864 67.44 56.924 147.465 56.924 232.408 0 2.094-0.013 4.185-0.038 6.273l0.003-0.318c0.428 3.429 0.673 7.397 0.673 11.423 0 53.726-43.554 97.28-97.28 97.28-3.845 0-7.638-0.223-11.367-0.657l0.454 0.043c-31.289 0-38.684-60.871-38.684-60.871v0c-9.163-51.084-26.004-96.723-49.475-138.109l1.119 2.145c-35.84-70.542-85.333-63.716-142.222-126.293-13.692-15.178-25.941-32.141-36.241-50.352l-0.737-1.416-3.413-5.12-3.413-7.396-6.827-11.947c-25.702-20.607-58.705-33.071-94.619-33.071-6.754 0-13.405 0.441-19.926 1.295l0.768-0.082c-2.498 0.338-5.385 0.531-8.318 0.531-36.132 0-65.422-29.291-65.422-65.422 0-2.391 0.128-4.752 0.378-7.077l-0.025 0.288v-328.818c0-50.062 20.48-66.56 72.249-66.56h71.68c40.293-6.802 76.411-19.298 109.482-36.786l-1.962 0.946c77.634-23.325 166.846-36.75 259.193-36.75 14.483 0 28.89 0.33 43.212 0.984l-2.032-0.074h109.796c23.552 0.631 44.733 10.284 60.314 25.612l-0.012-0.012c7.551 7.318 12.57 17.211 13.639 28.259l0.015 0.186c0.112 1.954 0.175 4.241 0.175 6.542s-0.064 4.588-0.189 6.858l0.014-0.315c0.496 2.82 0.779 6.068 0.779 9.381 0 25.402-16.649 46.915-39.629 54.224l-0.403 0.111h46.649c1.874-0.161 4.056-0.254 6.258-0.254 42.619 0 77.189 34.46 77.368 77.036v0.017c-0.955 41.046-34.456 73.956-75.643 73.956-0.007 0-0.014 0-0.020 0h25.032c41.443 1.244 74.566 35.138 74.566 76.767 0 39.222-29.402 71.577-67.368 76.227l-0.371 0.037z" />
<glyph unicode="&#xe90c;" d="M745.244-64h-109.796c-11.845-0.521-25.738-0.818-39.7-0.818-95.928 0-188.583 14.016-276.028 40.112l6.821-1.748c-17.053 6.732-30.909 13.228-44.326 20.436l2.229-1.094c-16.428 9.255-35.729 15.54-56.277 17.586l-0.611 0.049h-71.68c-42.098-2.276-98.987 7.396-98.987 91.022v328.818c-0.178 2.14-0.279 4.633-0.279 7.149 0 50.584 41.007 91.591 91.591 91.591 2.702 0 5.376-0.117 8.018-0.346l-0.343 0.024h6.258c3.959-0.429 8.55-0.673 13.199-0.673 27.135 0 52.324 8.332 73.148 22.578l-0.445-0.287 4.551 8.533c2.454 5.648 5.31 10.512 8.668 14.978l-0.135-0.187c11.82 21.587 24.833 40.224 39.6 57.299l-0.347-0.41c21.445 22.061 45.971 40.967 72.919 56.063l1.606 0.826c27.536 13.307 49.486 34.524 63.35 60.684l0.366 0.756c21.023 36.939 37.038 79.861 45.669 125.395l0.411 2.605c8.533 52.338 32.996 83.058 65.991 83.058v0c3.395 0.33 7.339 0.518 11.327 0.518 68.493 0 124.018-55.525 124.018-124.018 0-3.988-0.188-7.932-0.556-11.824l0.038 0.497c0-0.004 0-0.008 0-0.012 0-78.262-16.109-152.761-45.193-220.362l1.388 3.627 238.933-29.582c51.731-7.507 91.025-51.552 91.025-104.775 0-30.752-13.118-58.44-34.064-77.773l-0.072-0.066c18.458-18.941 29.842-44.852 29.842-73.423 0-37.102-19.198-69.719-48.202-88.46l-0.413-0.25c13.118-16.432 21.050-37.507 21.050-60.435 0-0.153 0-0.307-0.001-0.46v0.024c0.006-0.403 0.009-0.878 0.009-1.354 0-29.577-12.2-56.304-31.843-75.423l-0.024-0.023c-16.899-16.142-39.174-26.786-63.878-28.984l-0.407-0.029c2.994-9.132 4.72-19.643 4.72-30.557 0-2.059-0.061-4.103-0.183-6.131l0.013 0.279s0-11.947 0-16.498c-2.325-17.173-10.382-32.137-22.149-43.201l-0.038-0.035c-20.406-21.383-48.982-34.815-80.698-35.27l-0.084-0.001zM155.876 475.307c-31.289 0-44.942-14.222-44.942-44.942v-328.818c0-31.858 5.12-39.822 44.942-39.822h71.68c29.199-1.553 56.206-9.585 80.044-22.674l-0.968 0.487 37.547-15.36c76.236-22.127 163.807-34.854 254.351-34.854 12.984 0 25.908 0.262 38.765 0.78l-1.845-0.059h109.796c16.395 0.054 31.149 7.036 41.496 18.169l0.033 0.035c3.395 3.131 5.555 7.559 5.688 12.492l0.001 0.024c0.135 1.364 0.212 2.949 0.212 4.551s-0.077 3.187-0.228 4.75l0.015-0.199c0 21.049-5.689 33.564-20.48 38.116v31.289l-13.084 7.396 13.653 7.396v0.569l9.102 4.551h47.218c0.812-0.045 1.762-0.071 2.719-0.071 14.219 0 27.113 5.67 36.546 14.872l-0.011-0.010c9.491 8.853 15.408 21.432 15.408 35.394 0 0.757-0.017 1.51-0.052 2.259l0.004-0.106c-0.938 26.282-22.47 47.232-48.895 47.232-0.41 0-0.82-0.005-1.228-0.015l0.060 0.001 2.844 53.476h24.462c26.535 1.389 47.524 23.242 47.524 49.998 0 25.148-18.542 45.965-42.701 49.525l-0.272 0.033v53.476c0.553-0.023 1.201-0.036 1.853-0.036 12.461 0 23.808 4.77 32.315 12.583l-0.035-0.031c9.762 8.746 16.017 21.233 16.496 35.188l0.002 0.083c0.19 1.609 0.298 3.472 0.298 5.361 0 25.008-18.984 45.582-43.327 48.097l-0.207 0.017-274.773 35.271-19.911 40.391c33.71 64.016 53.495 139.89 53.495 220.385 0 1.521-0.007 3.041-0.021 4.559l0.002-0.233c0 32.996-5.689 76.231-80.782 76.231-6.679-10.754-11.317-23.464-13.037-37.084l-0.048-0.463c-9.737-54.283-27.566-102.785-52.399-146.81l1.199 2.312c-19.14-34.519-47.583-61.865-81.958-79.144l-1.099-0.501c-23.747-13.959-44.15-30.377-61.865-49.337l-0.144-0.156c-12.355-13.858-23.47-29.324-32.871-45.89l-0.693-1.328-17.636-30.151c-29.997-25.217-69.044-40.537-111.67-40.537-5.549 0-11.038 0.26-16.454 0.767l0.693-0.052z" />
<glyph unicode="&#xe90d;" glyph-name="canvas-weblink" d="M374.898 147.627l-51.769-51.769c-20.675-21.131-49.483-34.233-81.351-34.233s-60.676 13.102-81.331 34.212l-0.020 0.021c-20.447 20.566-33.086 48.914-33.086 80.213s12.639 59.648 33.091 80.219l190.572 191.71c39.822 39.253 113.778 96.711 170.667 43.236 11.364-11.57 27.173-18.741 44.658-18.741s33.294 7.171 44.649 18.732l0.009 0.009c11.464 11.519 18.551 27.403 18.551 44.942s-7.087 33.423-18.553 44.945l0.002-0.003c-92.16 91.022-227.556 74.524-347.022-43.236l-192.853-191.716c-44.272-43.402-71.715-103.83-71.715-170.667s27.443-127.264 71.676-170.628l0.039-0.038c43.847-43.306 104.133-70.055 170.667-70.055s126.82 26.749 170.691 70.079l-0.025-0.024 51.769 51.769c11.431 11.428 18.502 27.217 18.502 44.658s-7.071 33.23-18.501 44.658v0c-11.519 11.464-27.403 18.551-44.942 18.551s-33.423-7.087-44.945-18.553l0.003 0.002zM952.889 882.631c-41.848 46.636-102.313 75.84-169.6 75.84-61.167 0-116.698-24.134-157.589-63.399l0.077 0.074-65.991-64.284c-11.431-11.428-18.502-27.217-18.502-44.658s7.071-33.23 18.501-44.658v0c11.519-11.464 27.403-18.551 44.942-18.551s33.423 7.087 44.945 18.553l-0.003-0.002 64.284 64.284c18.217 16.608 42.554 26.779 69.266 26.779 32.732 0 61.897-15.273 80.757-39.081l0.164-0.214c20.447-20.566 33.086-48.914 33.086-80.213s-12.639-59.648-33.091-80.219l0.005 0.005-204.231-202.524c-92.729-92.16-136.533-48.924-155.307-30.151-11.428 11.431-27.217 18.502-44.658 18.502s-33.23-7.071-44.658-18.501v0c-11.464-11.519-18.551-27.403-18.551-44.942s7.087-33.423 18.553-44.945l-0.002 0.003c35.978-38.068 86.479-62.083 142.598-63.144l0.193-0.003c76.59 4.992 144.108 40.144 191.462 93.575l0.254 0.292 203.093 201.956c44.272 43.402 71.715 103.83 71.715 170.667s-27.443 127.264-71.676 170.628l-0.039 0.038z" />
<glyph unicode="&#xe90e;" glyph-name="canvas-audio" d="M537.031 960c18.897-4.105 35.070-9.001 50.69-15.012l-2.335 0.79c55.282-23.235 93.667-76.378 95.002-138.642l0.003-0.167c0-15.36 0-30.72 0-46.080v-284.444c0.084-1.922 0.132-4.177 0.132-6.443 0-51.15-24.458-96.587-62.317-125.254l-0.393-0.285c-26.724-21.545-61.092-34.583-98.506-34.583-24.569 0-47.824 5.623-68.55 15.651l0.94-0.41c-55.247 23.596-93.365 77.258-93.866 139.883v0.064c0 7.964 0 16.498 0 25.031v303.787c-0.071 1.772-0.112 3.852-0.112 5.941 0 54.022 27.086 101.717 68.418 130.247l0.529 0.346c18.472 14.32 40.732 24.688 65.007 29.422l0.984 0.16h8.533zM464.782-64v177.493c-112.104 17.307-206.803 80.414-265.916 169.24l-0.893 1.427c-35.632 52.426-56.89 117.123-56.89 186.785 0 0.334 0 0.667 0.001 1v-0.052h92.16c-0.001-0.269-0.002-0.588-0.002-0.906 0-88.492 43.173-166.901 109.606-215.312l0.76-0.528c47.089-35.865 106.735-57.46 171.425-57.46 6.338 0 12.628 0.207 18.863 0.615l-0.848-0.044c74.733 2.882 141.723 33.827 191.184 82.525l-0.037-0.036c49.484 47.501 80.231 114.197 80.231 188.074 0 1.081-0.007 2.159-0.020 3.237l0.002-0.164h91.591c-0.178-92.391-36.316-176.307-95.158-238.528l0.153 0.164c-58.137-63.577-136.765-107.558-225.372-121.46l-2.184-0.282v-175.787z" />
<glyph unicode="&#xe90f;" glyph-name="canvas-barcode" d="M0 759.182h75.093v-605.867h-75.093v605.867zM146.773 759.751h52.338v-404.48h-52.338v404.48zM282.169 759.751h52.338v-404.48h-52.338v404.48zM418.133 759.751h52.338v-404.48h-52.338v404.48zM553.529 759.751h52.338v-404.48h-52.338v404.48zM688.924 760.889h52.338v-404.48h-52.338v404.48zM824.889 759.751h52.338v-404.48h-52.338v404.48zM948.907 759.182h75.093v-605.867h-75.093v605.867zM185.458 305.778c-33.564 0-56.889-27.307-56.889-77.369s22.187-76.231 56.889-76.231 56.889 27.876 56.889 78.507-22.756 75.093-56.889 75.093zM185.458 167.538c-19.911 0-32.996 22.187-32.996 60.871s13.653 62.009 32.996 62.009 33.564-23.893 33.564-60.871-12.516-60.871-35.271-60.871zM290.702 173.227l13.084 10.809c34.702 30.151 56.889 52.338 56.889 79.644-0.652 23.684-20.007 42.635-43.789 42.635-2.416 0-4.786-0.196-7.095-0.572l0.253 0.034c-0.227 0.002-0.495 0.004-0.763 0.004-17.042 0-32.788-5.551-45.528-14.943l0.211 0.149 6.827-14.222c9.525 7.404 21.53 12.037 34.595 12.512l0.107 0.003c24.462 0 32.427-14.222 32.427-29.013s-18.773-41.529-60.871-77.938l-17.067-15.36v-12.516h104.107v17.067h-73.387zM403.911 287.004l3.982-15.36 28.444 14.222h0.569v-129.707h21.618v148.48h-18.773l-35.84-17.636zM595.627 242.631c-9.136 4.029-19.788 6.375-30.988 6.375-1.507 0-3.003-0.042-4.489-0.126l0.206 0.009h-13.084l6.258 38.116h62.578v18.773h-78.507l-10.24-72.818c3.325 0.335 7.187 0.526 11.093 0.526s7.768-0.191 11.576-0.564l-0.482 0.038c32.996 0 47.218-13.653 47.218-32.996-1.396-18.012-16.355-32.098-34.604-32.098-1.438 0-2.855 0.087-4.247 0.257l0.167-0.017c-12.822 0.094-24.938 3.021-35.784 8.184l0.513-0.22-5.12-15.36c11.094-5.757 24.221-9.132 38.137-9.132 0.793 0 1.583 0.011 2.37 0.033l-0.116-0.003c1.29-0.104 2.793-0.163 4.31-0.163 29.272 0 53.38 22.108 56.538 50.538l0.023 0.257c0.054 0.798 0.085 1.73 0.085 2.669 0 16.442-9.425 30.682-23.168 37.612l-0.241 0.11zM724.764 242.631c-9.037 4.041-19.584 6.395-30.682 6.395-1.614 0-3.217-0.050-4.807-0.148l0.218 0.011h-13.084l6.258 38.684h62.578v18.204h-78.507l-10.24-71.68c3.325 0.335 7.187 0.526 11.093 0.526s7.768-0.191 11.576-0.564l-0.482 0.038c32.996 0 47.218-13.653 47.218-32.996-1.396-18.012-16.355-32.098-34.604-32.098-1.438 0-2.855 0.087-4.247 0.257l0.167-0.017c-12.822 0.094-24.938 3.021-35.784 8.184l0.513-0.22-5.12-15.36c11.094-5.757 24.221-9.132 38.137-9.132 0.793 0 1.583 0.011 2.37 0.033l-0.116-0.003c1.29-0.104 2.793-0.163 4.31-0.163 29.272 0 53.38 22.108 56.538 50.538l0.023 0.257c0.018 0.465 0.029 1.011 0.029 1.559 0 16.42-9.4 30.644-23.113 37.584l-0.24 0.11zM865.849 305.778h-23.893l-72.818-96.142v-13.084h76.231v-40.96h20.48v40.96h23.324v15.36h-23.324zM845.369 263.111v-50.062h-54.044l40.391 50.631c4.551 6.827 8.533 13.084 13.653 22.187v0c0-8.533 0-16.498 0-23.893z" />
<glyph unicode="&#xe910;" d="M923.876 860.444h-89.316v66.56c-0.309 18.299-15.216 33.015-33.56 33.015-0.402 0-0.802-0.007-1.2-0.021l0.058 0.002h-121.173c-0.175 0.003-0.381 0.005-0.588 0.005-18.453 0-33.486-14.643-34.113-32.943l-0.002-0.057v-66.56h-263.964v66.56c-0.629 18.358-15.662 33.001-34.115 33.001-0.207 0-0.413-0.002-0.619-0.005h-121.142c-0.341 0.012-0.741 0.019-1.142 0.019-18.344 0-33.251-14.716-33.56-32.986v-66.589h-89.316c-0.516 0.010-1.123 0.015-1.733 0.015-53.56 0-97.127-42.784-98.39-96.040l-0.002-0.117v-732.16c1.265-53.374 44.832-96.157 98.392-96.157 0.609 0 1.217 0.006 1.824 0.017l-0.091-0.001h823.751c0.516-0.010 1.123-0.015 1.733-0.015 53.56 0 97.127 42.784 98.39 96.040l0.002 0.117v732.16c-1.265 53.374-44.832 96.157-98.392 96.157-0.609 0-1.217-0.006-1.824-0.017l0.091 0.001z" />
<glyph unicode="&#xe911;" d="M191.716 393.387h64.853c11.939 0 21.618-9.679 21.618-21.618v-60.302c0-11.939-9.679-21.618-21.618-21.618h-64.853c-11.939 0-21.618 9.679-21.618 21.618v60.302c0 11.939 9.679 21.618 21.618 21.618z" />
<glyph unicode="&#xe912;" d="M383.431 393.387h64.853c11.939 0 21.618-9.679 21.618-21.618v-60.302c0-11.939-9.679-21.618-21.618-21.618h-64.853c-11.939 0-21.618 9.679-21.618 21.618v60.302c0 11.939 9.679 21.618 21.618 21.618z" />
<glyph unicode="&#xe913;" d="M575.716 393.387h64.853c11.939 0 21.618-9.679 21.618-21.618v-60.302c0-11.939-9.679-21.618-21.618-21.618h-64.853c-11.939 0-21.618 9.679-21.618 21.618v60.302c0 11.939 9.679 21.618 21.618 21.618z" />
<glyph unicode="&#xe914;" d="M767.431 393.387h64.853c11.939 0 21.618-9.679 21.618-21.618v-60.302c0-11.939-9.679-21.618-21.618-21.618h-64.853c-11.939 0-21.618 9.679-21.618 21.618v60.302c0 11.939 9.679 21.618 21.618 21.618z" />
<glyph unicode="&#xe915;" d="M191.716 182.329h64.853c11.939 0 21.618-9.679 21.618-21.618v-60.302c0-11.939-9.679-21.618-21.618-21.618h-64.853c-11.939 0-21.618 9.679-21.618 21.618v60.302c0 11.939 9.679 21.618 21.618 21.618z" />
<glyph unicode="&#xe916;" d="M383.431 182.329h64.853c11.939 0 21.618-9.679 21.618-21.618v-60.302c0-11.939-9.679-21.618-21.618-21.618h-64.853c-11.939 0-21.618 9.679-21.618 21.618v60.302c0 11.939 9.679 21.618 21.618 21.618z" />
<glyph unicode="&#xe917;" d="M575.716 182.329h64.853c11.939 0 21.618-9.679 21.618-21.618v-60.302c0-11.939-9.679-21.618-21.618-21.618h-64.853c-11.939 0-21.618 9.679-21.618 21.618v60.302c0 11.939 9.679 21.618 21.618 21.618z" />
<glyph unicode="&#xe918;" d="M0 590.222h1024v-56.889h-1024v56.889z" />
<glyph unicode="&#xe919;" glyph-name="canvas-call" horiz-adv-x="1026" d="M1003.474 149.808l-158.503 159.073c-15.021 14.815-35.662 23.964-58.441 23.964s-43.42-9.149-58.45-23.973l-79.813-79.813-15.394 8.552c-73.743 38.249-137.038 84.623-192.214 139.189l0.072-0.071c-54.217 54.57-100.539 117.078-137.049 185.606l-2.069 4.256c-3.009 4.406-5.864 9.457-8.287 14.747l-0.266 0.647 79.822 79.822c14.815 15.021 23.964 35.662 23.964 58.441s-9.149 43.42-23.973 58.45l0.009-0.009-156.793 158.503c-14.804 14.118-34.895 22.806-57.016 22.806s-42.212-8.688-57.048-22.837l0.033 0.031-45.042-47.323c-14.75-19.068-27.398-40.877-36.957-64.276l-0.673-1.862c-7.545-19.077-13.164-41.251-15.847-64.322l-0.118-1.246c-21.096-173.898 57.016-332.401 273.105-547.35 297.621-297.621 537.087-277.096 547.92-277.096 24.516 3.356 46.634 9.142 67.611 17.227l-2.043-0.692c24.876 10.93 46.306 24.502 65.356 40.78l-0.358-0.299 45.042 44.472c14.118 14.804 22.806 34.895 22.806 57.016s-8.688 42.212-22.837 57.048l0.031-0.033z" />
<glyph unicode="&#xe91a;" d="M939.236 749.511h-29.013v11.947c-0.296 46.904-38.387 84.812-85.332 84.812-1.001 0-1.998-0.017-2.99-0.051l0.144 0.004h-224.711c-0.001 0-0.001 0-0.002 0-46.928 0-85.009-37.881-85.331-84.734v-11.978h-426.667c-47.128 0-85.333-38.205-85.333-85.333v0-512c0.323-46.883 38.403-84.764 85.331-84.764 0.001 0 0.001 0 0.002 0h853.333c0.174-0.001 0.38-0.002 0.586-0.002 46.814 0 84.764 37.95 84.764 84.764 0 0.601-0.006 1.2-0.019 1.798l0.001-0.089v512c0 0.001 0 0.001 0 0.002 0 46.928-37.881 85.009-84.734 85.331h-0.031z" />
<glyph unicode="&#xe91b;" d="M512 140.8c-137.928 0-249.742 111.814-249.742 249.742s111.813 249.742 249.742 249.742c137.729 0 249.418-111.489 249.742-249.142v-0.031c0 0 0 0 0-0.001 0-138.043-111.744-249.987-249.711-250.31h-0.031z" />
<glyph unicode="&#xe91c;" d="M512 504.889c-62.838 0-113.778-50.94-113.778-113.778s50.94-113.778 113.778-113.778c62.838 0 113.778 50.94 113.778 113.778v0c0 62.838-50.94 113.778-113.778 113.778v0z" />
<glyph unicode="&#xe91d;" d="M149.049 671.004c-0.169 0.002-0.369 0.002-0.569 0.002-37.388 0-67.698-30.309-67.698-67.698s30.309-67.698 67.698-67.698c37.388 0 67.696 30.308 67.698 67.695v0c0 0.001 0 0.002 0 0.002 0 37.188-29.986 67.373-67.098 67.695h-0.031z" />
<glyph unicode="&#xe91e;" glyph-name="canvas-checkbox-blank" d="M955.733 891.733v-887.467h-887.467v887.467h887.467zM1024 960h-1024v-1024h1024v1024z" />
<glyph unicode="&#xe91f;" d="M0 960h1024v-1024h-1024v1024z" />
<glyph unicode="&#xe920;" d="M796.444 604.444l-63.147 65.422c-3.644 3.392-8.548 5.474-13.938 5.474s-10.293-2.082-13.95-5.486l0.012 0.011-271.36-271.36-113.778 113.778c-3.644 3.392-8.548 5.474-13.938 5.474s-10.293-2.082-13.95-5.486l0.012 0.011-64.853-64.284c-3.392-3.644-5.474-8.548-5.474-13.938s2.082-10.293 5.486-13.95l-0.011 0.012 192.284-193.991c3.588-3.519 8.509-5.691 13.937-5.691 0.1 0 0.2 0.001 0.3 0.002h-0.015c0.2-0.008 0.434-0.013 0.669-0.013 5.131 0 9.75 2.191 12.973 5.689l0.011 0.012 348.729 350.436c3.399 3.764 5.53 8.73 5.688 14.19l0.001 0.032c-0.078 5.325-2.235 10.131-5.692 13.657l0.003-0.003z" />
<glyph unicode="&#xe921;" glyph-name="canvas-email" d="M1024 206.222c-0.153-22.622-6.257-43.785-16.821-62.045l0.323 0.605-324.836 360.107 319.716 279.893c12.723-18.732 20.664-41.63 21.611-66.321l0.007-0.239zM512 440.604l444.871 389.689c-17.568 9.826-38.509 15.702-60.803 15.928l-0.068 0.001h-768c-22.362-0.227-43.303-6.103-61.527-16.265l0.656 0.336zM636.018 464.498l-102.969-90.453c-5.583-4.933-12.964-7.944-21.049-7.944s-15.466 3.011-21.083 7.974l0.034-0.030-102.969 90.453-327.68-366.364c19.14-12.45 42.548-19.87 67.687-19.911h768.011c25.149 0.041 48.558 7.461 68.186 20.208l-0.488-0.297zM19.911 786.489c-12.438-19.335-19.851-42.929-19.911-68.25v-512.016c0.153-22.622 6.257-43.785 16.821-62.045l-0.323 0.605 324.836 360.107z" />
<glyph unicode="&#xe922;" glyph-name="canvas-exclamation-sign" d="M945.737 118.857l-400.457 694.857c-5.904 12.735-18.579 21.409-33.28 21.409s-27.376-8.674-33.186-21.183l-0.094-0.226-400.457-694.857c-3.136-5.472-4.985-12.029-4.985-19.017 0-21.362 17.279-38.689 38.624-38.765h800.19c21.352 0.077 38.631 17.403 38.631 38.765 0 6.989-1.849 13.545-5.085 19.207l0.1-0.19zM545.646 200.411h-66.926v69.12h66.926zM548.571 533.943l-18.286-222.354h-33.646l-21.211 222.354v17.554h73.143z" />
<glyph unicode="&#xe923;" glyph-name="canvas-file-upload" d="M888.604 462.222c-2.012 165.609-136.732 299.086-302.628 299.086-108.812 0-204.212-57.424-257.549-143.62l-0.747-1.297c-20.224 16.846-46.478 27.072-75.12 27.072-65.037 0-117.76-52.723-117.76-117.76 0-14.195 2.512-27.804 7.115-40.405l-0.261 0.818c-89.323-6.289-159.402-80.294-159.402-170.667 0-94.476 76.588-171.065 171.065-171.065 4.104 0 8.173 0.144 12.205 0.429l-0.542-0.031h316.871v211.627l-63.716-56.889c-5.018-3.712-11.327-5.941-18.158-5.941-9.976 0-18.842 4.756-24.454 12.123l-0.055 0.075c-4.521 5.242-7.274 12.119-7.274 19.64 0 9.213 4.132 17.461 10.644 22.991l0.043 0.036 113.778 95.573c5.196 4.368 11.959 7.022 19.342 7.022s14.147-2.654 19.388-7.059l-0.046 0.038 113.778-96.142c6.5-5.761 10.577-14.13 10.577-23.452 0-7.274-2.482-13.969-6.646-19.283l0.052 0.068c-5.739-6.5-14.032-10.63-23.293-10.808h-0.031c-0.062 0-0.136-0.001-0.209-0.001-7.378 0-14.101 2.809-19.155 7.417l0.023-0.020-64.284 54.044v-211.627h335.076c82.757 6.669 147.389 75.472 147.389 159.371 0 79.871-58.577 146.061-135.114 157.954l-0.898 0.115z" />
<glyph unicode="&#xe924;" d="M175.218 328.533c-63.566 56.612-109.862 131.357-130.801 216.095l-0.612 2.927c-6.099 21.175-9.606 45.498-9.606 70.639 0 8.378 0.389 16.665 1.151 24.845l-0.079-1.048c13.653 149.049 116.053 255.431 243.484 255.431 85.944-0.566 160.712-47.869 200.218-117.744l0.6-1.154 29.013-50.062 30.151 49.493c42.42 71.405 118.855 118.697 206.396 119.466l0.111 0.001c127.431 0 227.556-106.382 242.916-252.587 0.998-8.471 1.568-18.283 1.568-28.229 0-24.585-3.481-48.358-9.978-70.851l0.445 1.8c-21.552-87.665-67.848-162.41-130.988-218.65l-0.426-0.372-336.782-303.218z" />
<glyph unicode="&#xe925;" d="M745.244 863.289c109.227 0 197.404-93.298 208.782-221.867v-4.551c0.635-6.291 0.997-13.595 0.997-20.984 0-21.497-3.065-42.278-8.782-61.931l0.39 1.564c-19.872-80.545-62.337-149.24-120.228-201.055l-0.376-0.331-314.027-282.738-311.182 284.444c-59.251 51.415-102.794 119.493-123.394 196.923l-0.624 2.757c-5.401 19.315-8.506 41.494-8.506 64.399 0 5.764 0.197 11.483 0.584 17.149l-0.042-0.766v5.12c12.516 128.569 101.831 221.867 209.92 221.867 73.431-0.266 137.248-41.17 170.158-101.384l0.508-1.016 56.889-99.556 62.578 99.556c35.985 61.284 101.371 101.896 176.284 102.4h0.072zM745.244 931.556c-99.026-1.69-185.166-55.293-232.546-134.702l-0.698-1.263c-46.359 81.725-132.774 135.968-231.858 135.968-0.487 0-0.974-0.001-1.461-0.004h0.075c-145.636 0-262.258-119.467-278.756-284.444-1.089-9.457-1.711-20.417-1.711-31.521 0-27.241 3.74-53.609 10.733-78.617l-0.489 2.050c24.579-93.561 75.115-173.062 143.391-232.784l0.537-0.461 359.538-326.542 362.382 323.698c68.498 61.35 118.524 142.028 141.537 233.442l0.686 3.215c5.971 22.025 9.401 47.313 9.401 73.402 0 12.023-0.728 23.876-2.144 35.517l0.139-1.4c-14.791 164.409-131.413 284.444-277.049 284.444z" />
<glyph unicode="&#xe926;" glyph-name="canvas-image" d="M0 817.778v-762.88h1024v762.88zM987.591 91.307h-951.182v690.062h951.182zM354.418 416.711l223.573-219.022 27.307 27.876-52.338 51.2 148.48 98.987 173.511-174.080 27.876 27.876-196.836 196.836-181.476-121.742-167.253 164.409-234.382-187.164 24.462-30.72 207.076 165.547zM705.422 490.667c51.527 0 93.298 41.771 93.298 93.298s-41.771 93.298-93.298 93.298c-51.527 0-93.298-41.771-93.298-93.298v0c-0.001-0.17-0.002-0.37-0.002-0.571 0-51.213 41.516-92.729 92.729-92.729 0.201 0 0.401 0.001 0.601 0.002h-0.031zM705.422 638.578c5.046 1.624 10.85 2.56 16.874 2.56 31.419 0 56.889-25.47 56.889-56.889s-25.47-56.889-56.889-56.889c-6.023 0-11.828 0.936-17.276 2.671l0.403-0.111c-23.375 7.424-40.015 28.933-40.015 54.329s16.64 46.905 39.613 54.218l0.403 0.111z" />
<glyph unicode="&#xe927;" glyph-name="canvas-nfc" d="M0 496.924c3.982 21.049 6.827 42.667 12.516 63.716 3.799 16.145 9.473 30.375 16.917 43.468l-0.419-0.801c5.503 15.094 19.731 25.676 36.432 25.676 11.829 0 22.417-5.309 29.513-13.674l0.046-0.056 315.733-247.467c21.618-17.067 25.6-16.498 32.996 10.24 5.492 20.217 8.648 43.428 8.648 67.377 0 31.504-5.46 61.733-15.486 89.792l0.581-1.863-22.187 67.698c-2.408 5.894-4.565 12.938-6.108 20.208l-0.149 0.841c-1.577 4.976-2.486 10.699-2.486 16.635 0 19.859 10.176 37.342 25.598 47.518l0.213 0.132c5.203 1.732 11.193 2.732 17.416 2.732 19.723 0 37.102-10.037 47.307-25.281l0.13-0.206c29.281-40.817 49.505-90.044 56.705-143.402l0.184-1.664c4.718-25.41 7.416-54.647 7.416-84.514 0-56.31-9.591-110.379-27.229-160.665l1.039 3.401c-5.501-16.823-12.050-31.309-19.94-44.921l0.597 1.117c-7.758-19.806-26.701-33.578-48.86-33.578-14.755 0-28.084 6.106-37.598 15.928l-0.013 0.014c-60.302 44.942-119.467 91.022-179.769 136.533-37.547 28.444-75.093 56.889-113.778 84.764-6.393 3.762-13.809 6.709-21.682 8.44l-0.505 0.093c-3.223-7.533-5.275-16.273-5.683-25.44l-0.006-0.16c3.982-30.151 10.24-56.889 13.653-88.747 1.334-8.548 2.097-18.407 2.097-28.444s-0.762-19.896-2.232-29.523l0.135 1.078c-2.634-19.669-19.309-34.68-39.489-34.68-12.207 0-23.131 5.492-30.436 14.141l-0.049 0.059c-23.954 24.817-39.939 57.468-43.746 93.746l-0.059 0.69c-2.844 14.791-5.12 30.151-7.964 44.942zM1024 376.889c-5.12-37.547-9.671-75.093-16.498-113.778-13.385-87.145-38.846-165.623-74.913-237.881l2.095 4.636c-8.471-19.028-27.213-32.055-48.998-32.055-4.21 0-8.306 0.486-12.235 1.406l0.362-0.071c-22.401 3.484-39.778 21.247-42.64 43.552l-0.026 0.252c0.017 13.884 2.518 27.179 7.083 39.472l-0.256-0.787c18.773 61.44 43.236 121.742 56.889 184.32 12.785 54.079 20.115 116.171 20.115 179.975 0 112.18-22.659 219.068-63.649 316.336l2.005-5.36c-5.689 14.222-10.809 28.444-15.929 42.667-3.147 6.489-4.986 14.113-4.986 22.168 0 20.918 12.407 38.939 30.263 47.104l0.323 0.132c6.859 3.701 15.013 5.876 23.674 5.876 21.056 0 39.11-12.853 46.744-31.141l0.124-0.335c34.309-67.923 60.142-146.746 73.352-229.775l0.604-4.607c6.827-37.547 11.378-75.093 16.498-113.778zM804.978 434.347c0.078-3.828 0.123-8.34 0.123-12.863 0-109.093-25.891-212.138-71.864-303.326l1.768 3.87c-9.337-19.403-28.844-32.556-51.422-32.556-11.555 0-22.305 3.445-31.28 9.364l0.213-0.132c-13.75 9.568-22.637 25.293-22.637 43.094 0 8.11 1.845 15.79 5.138 22.642l-0.136-0.314c14.791 43.804 33.564 87.040 44.373 131.982 10.592 42.512 16.669 91.317 16.669 141.541 0 86.586-18.062 168.954-50.623 243.541l1.527-3.926c-5.12 11.947-10.24 24.462-14.222 36.978-1.776 5.067-2.803 10.909-2.803 16.991 0 22.026 13.46 40.909 32.604 48.871l0.35 0.129c6.766 3.698 14.822 5.874 23.386 5.874 19.762 0 36.819-11.582 44.753-28.328l0.128-0.301c19.089-38.272 36.539-83.418 49.83-130.311l1.37-5.653c11.169-54.235 19.295-118.489 22.628-184.008l0.128-3.157z" />
<glyph unicode="&#xe928;" glyph-name="canvas-pin" d="M754.347 854.756c-64.796 65.003-154.421 105.222-253.44 105.222s-188.644-40.219-253.431-105.213l-0.009-0.009c-65.302-72.122-105.268-168.246-105.268-273.706 0-86.038 26.601-165.863 72.028-231.699l-0.893 1.369 287.289-414.72 287.289 414.151c44.727 64.622 71.448 144.673 71.448 230.964 0 105.395-39.862 201.48-105.332 274l0.319-0.359zM504.036 473.6c-72.263 0-130.844 58.581-130.844 130.844s58.581 130.844 130.844 130.844c72.263 0 130.844-58.581 130.844-130.844v0c0-72.263-58.581-130.844-130.844-130.844v0z" />
<glyph unicode="&#xe929;" glyph-name="canvas-radio-blank" d="M512 891.733c245.067 0 443.733-198.666 443.733-443.733s-198.666-443.733-443.733-443.733c-245.067 0-443.733 198.666-443.733 443.733v0c0.323 244.937 198.796 443.41 443.702 443.733h0.031zM512 960v0c-282.77 0-512-229.23-512-512v0 0c0-282.77 229.23-512 512-512v0 0c282.77 0 512 229.23 512 512v0 0c0 282.77-229.23 512-512 512v0z" />
</font>
</defs>
</svg>
