<svg id="Layer_1" data-name="Layer 1" xmlns="http://www.w3.org/2000/svg" viewBox="0 0 48.14 65.4"><defs><style>.cls-1{fill:#3d464d;}</style></defs><title>Audio_icon_agent</title><path class="cls-1" d="M421.75,265.16a21.92,21.92,0,0,1,3.1.9,9.86,9.86,0,0,1,6.05,8.89c0.07,1,0,2,0,2.94q0,9,0,18a10,10,0,0,1-4,8.45,10.14,10.14,0,0,1-10.62,1.22c-3.78-1.63-5.69-4.7-6-8.77,0-.53,0-1.06,0-1.6q0-9.71,0-19.41a10.18,10.18,0,0,1,4.3-8.74,10,10,0,0,1,4.34-1.74c0.18,0,.36-0.09.55-0.13h2.3Z" transform="translate(-396.53 -265.16)"/><path class="cls-1" d="M417.15,330.56V319.22a24.75,24.75,0,0,1-17.05-11,21.38,21.38,0,0,1-3.56-12h5.81A16.94,16.94,0,0,0,409.39,310a19,19,0,0,0,24.3-1.61,16.87,16.87,0,0,0,5.14-12.22h5.83a22.16,22.16,0,0,1-6.06,15.21A24.66,24.66,0,0,1,424,319.2v11.36h-6.9Z" transform="translate(-396.53 -265.16)"/></svg>