<svg id="Layer_1" data-name="Layer 1" xmlns="http://www.w3.org/2000/svg" viewBox="0 0 27.37 16.24"><defs><style>.cls-1{fill:#3d464d;}</style></defs><title>barcode-icon_agent</title><rect class="cls-1" y="0.04" width="2" height="16.2"/><rect class="cls-1" x="3.92" y="0.03" width="1.4" height="10.81"/><rect class="cls-1" x="7.55" y="0.03" width="1.4" height="10.81"/><rect class="cls-1" x="11.17" y="0.03" width="1.4" height="10.81"/><rect class="cls-1" x="14.8" y="0.03" width="1.4" height="10.81"/><rect class="cls-1" x="18.42" width="1.4" height="10.81"/><rect class="cls-1" x="22.05" y="0.03" width="1.4" height="10.81"/><rect class="cls-1" x="25.37" y="0.04" width="2" height="16.2"/><path class="cls-1" d="M413.87,303.61c0,1.35-.55,2.1-1.52,2.1s-1.43-.73-1.45-2,0.63-2.07,1.52-2.07S413.87,302.34,413.87,303.61Zm-2.37.06c0,1,.35,1.62.89,1.62s0.89-.64.89-1.66S413,302,412.39,302,411.5,302.59,411.5,303.67Z" transform="translate(-407.47 -289.47)"/><path class="cls-1" d="M414.42,305.64v-0.33l0.46-.41c1.12-1,1.62-1.48,1.63-2.08a0.75,0.75,0,0,0-.87-0.78,1.57,1.57,0,0,0-.93.34l-0.19-.38a2,2,0,0,1,1.24-.4,1.18,1.18,0,0,1,1.34,1.16c0,0.73-.59,1.33-1.51,2.14l-0.35.29h2v0.45h-2.79Z" transform="translate(-407.47 -289.47)"/><path class="cls-1" d="M419.16,302.17h0l-0.76.37-0.11-.41,1-.46h0.5v4h-0.57v-3.48Z" transform="translate(-407.47 -289.47)"/><path class="cls-1" d="M423.94,302.12h-1.67l-0.17,1a2.62,2.62,0,0,1,.36,0,2,2,0,0,1,.94.21,1.12,1.12,0,0,1,.63,1,1.46,1.46,0,0,1-1.63,1.36,2.31,2.31,0,0,1-1.09-.25l0.15-.41a2.12,2.12,0,0,0,.94.22,0.93,0.93,0,0,0,1-.86c0-.51-0.38-0.88-1.26-0.88a5,5,0,0,0-.61,0l0.28-1.91h2.09v0.45Z" transform="translate(-407.47 -289.47)"/><path class="cls-1" d="M427.39,302.12h-1.67l-0.17,1a2.62,2.62,0,0,1,.36,0,2,2,0,0,1,.94.21,1.12,1.12,0,0,1,.63,1,1.46,1.46,0,0,1-1.63,1.36,2.31,2.31,0,0,1-1.09-.25l0.15-.41a2.11,2.11,0,0,0,.94.22,0.93,0.93,0,0,0,1-.86c0-.51-0.38-0.88-1.26-0.88a5.06,5.06,0,0,0-.61,0l0.28-1.91h2.09v0.45Z" transform="translate(-407.47 -289.47)"/><path class="cls-1" d="M430.06,305.64v-1.08h-2V304.2l2-2.54h0.64v2.47h0.61v0.42h-0.61v1.08h-0.56Zm0-1.51v-1.33q0-.31,0-0.62h0c-0.13.23-.24,0.4-0.36,0.59l-1.07,1.35h1.43Z" transform="translate(-407.47 -289.47)"/></svg>