<svg id="Layer_1" data-name="Layer 1" xmlns="http://www.w3.org/2000/svg" viewBox="0 0 29.36 29.36"><defs><style>.cls-1{fill:#e2f3fa;}.cls-2{fill:#044d7c;}.cls-3{fill:#141e25;}</style></defs><title>camera-blue-icon</title><rect class="cls-1" x="0.22" y="0.22" width="28.92" height="28.92" rx="2.52" ry="2.52"/><path class="cls-2" d="M27,30H3.16A2.74,2.74,0,0,1,.42,27.26V3.38A2.74,2.74,0,0,1,3.16.64H27a2.74,2.74,0,0,1,2.74,2.74V27.26A2.74,2.74,0,0,1,27,30ZM3.16,1.08A2.3,2.3,0,0,0,.87,3.38V27.26a2.3,2.3,0,0,0,2.29,2.3H27a2.3,2.3,0,0,0,2.3-2.3V3.38A2.3,2.3,0,0,0,27,1.08Z" transform="translate(-0.42 -0.64)"/><circle class="cls-3" cx="14.71" cy="15.42" r="4.47"/><path class="cls-2" d="M15.1,14.32a1.76,1.76,0,1,0,1.77,1.76,1.76,1.76,0,0,0-1.77-1.76Zm0,0" transform="translate(-0.42 -0.64)"/><path class="cls-2" d="M21.81,10.74h-.5v-.19A1.33,1.33,0,0,0,20,9.22H16.44a1.33,1.33,0,0,0-1.34,1.33v.19H8.4a1.33,1.33,0,0,0-1.34,1.33v8A1.33,1.33,0,0,0,8.4,21.42H21.81a1.32,1.32,0,0,0,1.33-1.33v-8a1.32,1.32,0,0,0-1.33-1.33ZM9.54,14.32a1.08,1.08,0,1,1,1.08-1.08,1.08,1.08,0,0,1-1.08,1.08ZM15.1,20A3.92,3.92,0,1,1,19,16.08,3.93,3.93,0,0,1,15.1,20Zm0,0" transform="translate(-0.42 -0.64)"/></svg>