<svg id="Layer_1" data-name="Layer 1" xmlns="http://www.w3.org/2000/svg" viewBox="0 0 31.24 31.25"><defs><style>.cls-1{fill:#fddfdc;}.cls-2{fill:#f26b5a;}.cls-3{fill:#661a14;}.cls-4{fill:#fff;}</style></defs><title>Camera_icon_agent_red</title><rect class="cls-1" x="0.24" y="0.24" width="30.77" height="30.77" rx="2.68" ry="2.68"/><path class="cls-2" d="M310.33,436.29H284.92a2.92,2.92,0,0,1-2.92-2.92V408a2.92,2.92,0,0,1,2.92-2.92h25.41a2.92,2.92,0,0,1,2.92,2.92v25.41A2.92,2.92,0,0,1,310.33,436.29Zm-25.41-30.77a2.45,2.45,0,0,0-2.44,2.44v25.41a2.45,2.45,0,0,0,2.44,2.44h25.41a2.45,2.45,0,0,0,2.44-2.44V408a2.45,2.45,0,0,0-2.44-2.44H284.92Z" transform="translate(-282 -405.04)"/><circle class="cls-3" cx="15.63" cy="16.41" r="4.76"/><path class="cls-4" d="M297.63,419.6a1.88,1.88,0,1,0,1.88,1.88,1.88,1.88,0,0,0-1.88-1.88h0Zm0,0" transform="translate(-282 -405.04)"/><path class="cls-2" d="M304.8,415.83h-0.53v-0.2a1.42,1.42,0,0,0-1.42-1.42h-3.76a1.42,1.42,0,0,0-1.42,1.42v0.2h-7.14a1.42,1.42,0,0,0-1.42,1.42v8.53a1.42,1.42,0,0,0,1.42,1.42H304.8a1.42,1.42,0,0,0,1.42-1.42v-8.53a1.42,1.42,0,0,0-1.42-1.42h0Zm-13.06,3.81a1.15,1.15,0,1,1,1.15-1.15,1.15,1.15,0,0,1-1.15,1.15h0Zm5.92,6.05a4.17,4.17,0,1,1,4.17-4.17,4.18,4.18,0,0,1-4.17,4.17h0Zm0,0" transform="translate(-282 -405.04)"/></svg>