<svg id="Layer_1" data-name="Layer 1" xmlns="http://www.w3.org/2000/svg" viewBox="0 0 62.39 62.39"><defs><style>.cls-1{fill:#ebf6f5;}.cls-2{fill:#64c5b4;}.cls-3{fill:#1e2528;}.cls-4{fill:#45beaa;}.cls-5{fill:#479e8d;}</style></defs><title>Camera_icon_agent</title><rect class="cls-1" x="0.47" y="0.47" width="61.45" height="61.45" rx="5.35" ry="5.35"/><path class="cls-2" d="M329,451H278.29a5.83,5.83,0,0,1-5.82-5.82V394.46a5.83,5.83,0,0,1,5.82-5.82H329a5.83,5.83,0,0,1,5.82,5.82v50.74A5.83,5.83,0,0,1,329,451Zm-50.74-61.45a4.88,4.88,0,0,0-4.88,4.88v50.74a4.88,4.88,0,0,0,4.88,4.88H329a4.88,4.88,0,0,0,4.88-4.88V394.46a4.88,4.88,0,0,0-4.88-4.88H278.29Z" transform="translate(-272.47 -388.64)"/><circle class="cls-3" cx="31.27" cy="32.76" r="9.51"/><path class="cls-4" d="M303.66,417.7a3.75,3.75,0,1,0,3.75,3.75,3.75,3.75,0,0,0-3.75-3.75h0Zm0,0" transform="translate(-272.47 -388.64)"/><path class="cls-5" d="M317.91,410.1h-1.06V409.7a2.84,2.84,0,0,0-2.84-2.84H306.5a2.84,2.84,0,0,0-2.84,2.84v0.39H289.41a2.84,2.84,0,0,0-2.84,2.84v17a2.84,2.84,0,0,0,2.84,2.84h28.5a2.84,2.84,0,0,0,2.84-2.84v-17a2.84,2.84,0,0,0-2.84-2.84h0Zm-26.07,7.61a2.29,2.29,0,1,1,2.29-2.29,2.29,2.29,0,0,1-2.29,2.29h0Zm11.82,12.08a8.33,8.33,0,1,1,8.33-8.33,8.34,8.34,0,0,1-8.33,8.33h0Zm0,0" transform="translate(-272.47 -388.64)"/></svg>