<svg id="Layer_1" data-name="Layer 1" xmlns="http://www.w3.org/2000/svg" viewBox="0 0 22.54 23.45"><defs><style>.cls-1{fill:#f26b5a;}.cls-2{fill:#fddfdc;}.cls-3{fill:#661a14;}</style></defs><title>calendar-red</title><rect class="cls-1" x="4.17" width="4.19" height="4.77" rx="0.76" ry="0.76"/><rect class="cls-1" x="14.18" width="4.19" height="4.77" rx="0.76" ry="0.76"/><path class="cls-2" d="M286.55,430.11a2.21,2.21,0,0,0,2.2,2.2h18.14a2.21,2.21,0,0,0,2.2-2.2V416.65H286.55v13.45Z" transform="translate(-286.55 -408.86)"/><path class="cls-1" d="M309.09,413.35a2.21,2.21,0,0,0-2.2-2.2H288.75a2.21,2.21,0,0,0-2.2,2.2v3.31h22.54v-3.31Z" transform="translate(-286.55 -408.86)"/><rect class="cls-3" x="3.74" y="12.13" width="2.38" height="2.38" rx="0.49" ry="0.49"/><rect class="cls-3" x="7.97" y="12.13" width="2.38" height="2.38" rx="0.49" ry="0.49"/><rect class="cls-3" x="12.2" y="12.13" width="2.38" height="2.38" rx="0.49" ry="0.49"/><rect class="cls-3" x="16.42" y="12.13" width="2.38" height="2.38" rx="0.49" ry="0.49"/><rect class="cls-3" x="3.74" y="16.96" width="2.38" height="2.38" rx="0.49" ry="0.49"/><rect class="cls-3" x="7.97" y="16.96" width="2.38" height="2.38" rx="0.49" ry="0.49"/><rect class="cls-3" x="12.2" y="16.96" width="2.38" height="2.38" rx="0.49" ry="0.49"/></svg>