<svg id="Layer_1" data-name="Layer 1" xmlns="http://www.w3.org/2000/svg" viewBox="0 0 26.1 27.15"><defs><style>.cls-1{fill:#4ec0aa;}.cls-2{fill:#2f4b46;}.cls-3{fill:#fff;}</style></defs><title>calendar-server</title><rect class="cls-1" x="4.83" width="4.85" height="5.52" rx="0.88" ry="0.88"/><rect class="cls-1" x="16.42" width="4.85" height="5.52" rx="0.88" ry="0.88"/><path class="cls-2" d="M139.1,383.39a2.56,2.56,0,0,0,2.55,2.55h21a2.56,2.56,0,0,0,2.55-2.55V367.81H139.1v15.58Z" transform="translate(-139.1 -358.79)"/><path class="cls-1" d="M165.2,364a2.56,2.56,0,0,0-2.55-2.55h-21A2.56,2.56,0,0,0,139.1,364v3.83h26.1V364Z" transform="translate(-139.1 -358.79)"/><rect class="cls-3" x="4.33" y="14.04" width="2.75" height="2.75" rx="0.57" ry="0.57"/><rect class="cls-3" x="9.23" y="14.04" width="2.75" height="2.75" rx="0.57" ry="0.57"/><rect class="cls-3" x="14.12" y="14.04" width="2.75" height="2.75" rx="0.57" ry="0.57"/><rect class="cls-3" x="19.01" y="14.04" width="2.75" height="2.75" rx="0.57" ry="0.57"/><rect class="cls-3" x="4.33" y="19.63" width="2.75" height="2.75" rx="0.57" ry="0.57"/><rect class="cls-3" x="9.23" y="19.63" width="2.75" height="2.75" rx="0.57" ry="0.57"/><rect class="cls-3" x="14.12" y="19.63" width="2.75" height="2.75" rx="0.57" ry="0.57"/></svg>