<svg id="Layer_1" data-name="Layer 1" xmlns="http://www.w3.org/2000/svg" viewBox="0 0 27.7 28.81"><defs><style>.cls-1{fill:#044d7c;}.cls-2{fill:#e6e7e8;}.cls-3{fill:#3d464d;}</style></defs><title>calendar-blue-icon</title><rect class="cls-1" x="5.13" width="5.15" height="5.86" rx="0.93" ry="0.93"/><rect class="cls-1" x="17.43" width="5.15" height="5.86" rx="0.93" ry="0.93"/><path class="cls-2" d="M1.2,27a2.7,2.7,0,0,0,2.7,2.7H26.19A2.71,2.71,0,0,0,28.9,27V10.49H1.2Z" transform="translate(-1.2 -0.91)"/><path class="cls-1" d="M28.9,6.42a2.72,2.72,0,0,0-2.71-2.7H3.9a2.71,2.71,0,0,0-2.7,2.7v4.07H28.9Z" transform="translate(-1.2 -0.91)"/><rect class="cls-3" x="4.6" y="14.91" width="2.92" height="2.92" rx="0.6" ry="0.6"/><rect class="cls-3" x="9.79" y="14.91" width="2.92" height="2.92" rx="0.6" ry="0.6"/><rect class="cls-3" x="14.99" y="14.91" width="2.92" height="2.92" rx="0.6" ry="0.6"/><rect class="cls-3" x="20.18" y="14.91" width="2.92" height="2.92" rx="0.6" ry="0.6"/><rect class="cls-3" x="4.6" y="20.84" width="2.92" height="2.92" rx="0.6" ry="0.6"/><rect class="cls-3" x="9.79" y="20.84" width="2.92" height="2.92" rx="0.6" ry="0.6"/><rect class="cls-3" x="14.99" y="20.84" width="2.92" height="2.92" rx="0.6" ry="0.6"/></svg>