<svg id="Layer_1" data-name="Layer 1" xmlns="http://www.w3.org/2000/svg" viewBox="0 0 101.31 75.98"><defs><style>.cls-1{fill:#3d464d;}</style></defs><title>email</title><path class="cls-1" d="M348.4,446.72a12.54,12.54,0,0,1-1.63,6.09l-32-35.79,31.64-27.68a12.57,12.57,0,0,1,2,6.73v50.65Zm-50.65-23.2,44-38.52a12.5,12.5,0,0,0-6-1.6h-76a12.45,12.45,0,0,0-6,1.6ZM310,421.19l-10.19,8.92a3.18,3.18,0,0,1-4.17,0l-10.19-8.92-32.39,36.25a12.51,12.51,0,0,0,6.68,1.95h76a12.5,12.5,0,0,0,6.68-1.95Zm-61-31.85a12.57,12.57,0,0,0-2,6.73v50.65a12.51,12.51,0,0,0,1.63,6.09l32-35.8Zm0,0" transform="translate(-247.09 -383.41)"/></svg>