<svg id="Layer_1" data-name="Layer 1" xmlns="http://www.w3.org/2000/svg" viewBox="0 0 180.94 124.4"><defs><style>.cls-1{fill:#ccc;}</style></defs><title>open_eye</title><path class="cls-1" d="M416.82,384.77a138.48,138.48,0,0,1,10.13,14.43c-20.68,34.28-53.44,56.55-90.47,56.55S266.69,433.48,246,399.2a140.65,140.65,0,0,1,10.13-14.43l-3.62-3.62a5.66,5.66,0,1,1,8-8l3,3a122.36,122.36,0,0,1,9-8.52l-3.7-6.41a5.66,5.66,0,0,1,9.8-5.65l3,5.14a105,105,0,0,1,10.35-6.35l-2.18-8.19a5.65,5.65,0,0,1,10.92-2.93l1.68,6.27a92.58,92.58,0,0,1,11.51-3.76V337a5.66,5.66,0,0,1,11.31,0v6.5a75.83,75.83,0,0,1,22.62,0V337a5.65,5.65,0,0,1,11.31,0v8.71a92.51,92.51,0,0,1,11.51,3.76l1.68-6.26a5.65,5.65,0,0,1,10.92,2.93L381,354.3a108.17,108.17,0,0,1,10.36,6.35l3-5.13a5.66,5.66,0,0,1,9.79,5.66l-3.7,6.4a121.36,121.36,0,0,1,9,8.53l3-3a5.66,5.66,0,1,1,8,8ZM336.47,354c-29.8,0-57.56,16.39-77.05,45.24,19.49,28.85,47.25,45.24,77.05,45.24S394,428,413.53,399.2C394,370.35,366.27,354,336.47,354h0Zm0,0" transform="translate(-246 -331.35)"/><path class="cls-1" d="M336.47,368.55a30.29,30.29,0,1,0,30.29,30.29A30.29,30.29,0,0,0,336.47,368.55Zm0,49.16a18.87,18.87,0,1,1,18.87-18.87A18.87,18.87,0,0,1,336.47,417.71Z" transform="translate(-246 -331.35)"/></svg>