<svg id="Layer_1" data-name="Layer 1" xmlns="http://www.w3.org/2000/svg" viewBox="0 0 102.4 70.4"><defs><style>.cls-1{fill:#ccc;}</style></defs><title>close_eye</title><path class="cls-1" d="M342.67,426.78a78.37,78.37,0,0,0,5.73-8.16c-11.7-19.4-30.24-32-51.2-32s-39.49,12.6-51.2,32a79.59,79.59,0,0,0,5.73,8.16l-2,2a3.2,3.2,0,0,0,4.53,4.53l1.68-1.68a69.24,69.24,0,0,0,5.12,4.82l-2.09,3.62a3.2,3.2,0,0,0,5.55,3.2l1.68-2.91A59.4,59.4,0,0,0,272,444l-1.23,4.63a3.2,3.2,0,0,0,6.18,1.66l0.95-3.55a52.39,52.39,0,0,0,6.51,2.13v4.93a3.2,3.2,0,0,0,6.4,0v-3.68a42.92,42.92,0,0,0,12.8,0v3.68a3.2,3.2,0,0,0,6.4,0v-4.93a52.35,52.35,0,0,0,6.51-2.12l1,3.54a3.2,3.2,0,0,0,6.18-1.66L322.41,444a61.22,61.22,0,0,0,5.86-3.59l1.68,2.9a3.2,3.2,0,0,0,5.54-3.2l-2.09-3.62a68.68,68.68,0,0,0,5.12-4.83l1.68,1.68a3.2,3.2,0,1,0,4.52-4.53ZM297.2,444.22c-16.86,0-32.57-9.28-43.6-25.6,11-16.32,26.74-25.6,43.6-25.6s32.57,9.28,43.61,25.6c-11,16.32-26.74,25.6-43.61,25.6h0Zm0,0" transform="translate(-246 -386.62)"/></svg>