<svg id="Layer_1" data-name="Layer 1" xmlns="http://www.w3.org/2000/svg" viewBox="0 0 152.24 91.66"><defs><style>.cls-1{fill:#fff;}</style></defs><title>file_upload_white</title><path class="cls-1" d="M476.65,296.07a45,45,0,0,0-83.39-22.93,17.46,17.46,0,0,0-27.61,19.35,25.62,25.62,0,0,0,3.41,50.81v0h47.11V311.77l-9.48,8.07a4.5,4.5,0,0,1-5.83-6.85l16.74-14.25a4.5,4.5,0,0,1,5.8,0l17,14.25a4.5,4.5,0,0,1-5.77,6.9l-9.51-7.95v31.41H475v-0.09A23.76,23.76,0,0,0,476.65,296.07Z" transform="translate(-344.56 -251.66)"/></svg>