<svg id="Layer_1" data-name="Layer 1" xmlns="http://www.w3.org/2000/svg" viewBox="0 0 181.33 184.47"><defs><style>.cls-1{fill:#1ea361;}.cls-1,.cls-2,.cls-3,.cls-4,.cls-5{fill-rule:evenodd;}.cls-2{fill:#fedb43;}.cls-3{fill:#5384c4;}.cls-4{fill:#fff;}.cls-5{fill:#c2c2c1;}.cls-6{fill:#f0efef;}.cls-7{fill:#dc4b3e;}.cls-8{fill:#802d28;}</style></defs><title>google_map</title><path class="cls-1" d="M206.48,496.19V364.89a13.83,13.83,0,0,1,13.83-13.83h131.3Z" transform="translate(-206.48 -328.29)"/><path class="cls-2" d="M206.48,498.94v-2.76L351.61,351.06h2.76a13.83,13.83,0,0,1,13.83,13.83v2.76L223.07,512.77h-2.76A13.83,13.83,0,0,1,206.48,498.94Z" transform="translate(-206.48 -328.29)"/><polygon class="cls-3" points="16.58 184.47 80.86 120.2 145.12 184.47 16.58 184.47"/><path class="cls-4" d="M351.61,512.77l-65.25-65.25,16.59-16.58,65.25,65.25v2.76a13.83,13.83,0,0,1-13.83,13.83h-2.76Z" transform="translate(-206.48 -328.29)"/><polygon class="cls-5" points="161.71 167.89 97.44 103.62 161.71 39.35 161.71 167.89"/><path class="cls-6" d="M235.33,368.94a23.47,23.47,0,0,1,25.2,3.93c-2.09,2.13-4.24,4.21-6.39,6.29-6.68-6.63-19.24-3.49-22.37,5.29-4.1,8.63,2.71,20,12.34,20.11A12.82,12.82,0,0,0,258,394.78c-4.4,0-8.8,0-13.19,0-0.12-2.71-.14-5.43-0.08-8.15,7.35,0.19,14.89-.42,22.13.3,0.55,5.38.17,11.09-2.72,15.8-4.54,8.44-15.24,12.13-24.3,10-11.2-2.32-19.59-13.81-18.06-25.2A23.49,23.49,0,0,1,235.33,368.94Z" transform="translate(-206.48 -328.29)"/><path class="cls-7" d="M339.95,328.29h5.26c13.1,0.75,25.91,7.15,33.85,17.68a43.32,43.32,0,0,1,8.76,23.29v3.11c-0.31,16.25-10.71,29.6-19.71,42.24-10.11,14.29-19.45,29.85-22,47.46-0.69,3,.14,7.16-3.43,8.51a9.54,9.54,0,0,1-2.4-2.1,90.12,90.12,0,0,0-7.72-28.56c-4.76-10.47-11.4-19.94-18.14-29.2a133.86,133.86,0,0,1-11.17-17.43A45.2,45.2,0,0,1,298.36,363a42.74,42.74,0,0,1,11.84-21.5A47.07,47.07,0,0,1,339.95,328.29Zm-1,28.63c-6.22,1.39-11.43,6.89-12,13.32A15,15,0,0,0,335.19,385a16.4,16.4,0,0,0,18.33-2.31,14.91,14.91,0,0,0,3.82-16.56C354.53,359.06,346.2,355.06,338.92,356.92Z" transform="translate(-206.48 -328.29)"/><path class="cls-8" d="M338.92,356.92c7.28-1.86,15.61,2.14,18.41,9.16a14.91,14.91,0,0,1-3.82,16.56A16.4,16.4,0,0,1,335.19,385,15,15,0,0,1,327,370.24C327.49,363.81,332.71,358.31,338.92,356.92Z" transform="translate(-206.48 -328.29)"/></svg>