<svg id="Layer_1" data-name="Layer 1" xmlns="http://www.w3.org/2000/svg" viewBox="0 0 93.66 93.66"><defs><style>.cls-1{fill:#3d464d;}</style></defs><title>link</title><path class="cls-1" d="M285.32,449l-4.74,4.7a10.6,10.6,0,0,1-14.89,0,10.31,10.31,0,0,1,0-14.65l17.45-17.3c3.61-3.59,10.42-8.87,15.37-3.95a5.8,5.8,0,1,0,8.18-8.24c-8.43-8.36-20.88-6.81-31.73,3.95l-17.45,17.3a21.91,21.91,0,0,0,0,31.13,22.25,22.25,0,0,0,31.25,0l4.74-4.71a5.8,5.8,0,1,0-8.18-8.23h0Zm52.87-67.23c-9-9-21.7-9.47-30.08-1.15l-5.9,5.87a5.8,5.8,0,1,0,8.17,8.23l5.9-5.86c4.34-4.31,10-2.52,13.73,1.15a10.3,10.3,0,0,1,0,14.66L311.4,423.15c-8.51,8.44-12.5,4.48-14.21,2.79a5.8,5.8,0,1,0-8.18,8.24c3.91,3.88,8.37,5.8,13,5.8,5.73,0,11.77-2.88,17.52-8.59l18.61-18.46a21.9,21.9,0,0,0,0-31.13h0Zm0,0" transform="translate(-251.02 -374.72)"/></svg>