<svg id="Layer_1" data-name="Layer 1" xmlns="http://www.w3.org/2000/svg" viewBox="0 0 36.22 30.95"><defs><style>.cls-1{fill:#33526e;}</style></defs><title>NFC_icon_agent</title><path class="cls-1" d="M403.64,295.28c0.14-.76.24-1.53,0.44-2.27a6,6,0,0,1,.59-1.5,1.37,1.37,0,0,1,2.33-.42l11.18,8.76c0.77,0.6.9,0.57,1.17-.36a9.42,9.42,0,0,0-.24-5.55c-0.25-.78-0.52-1.56-0.78-2.34a6.38,6.38,0,0,1-.22-0.74,2,2,0,0,1,.84-2.28,1.89,1.89,0,0,1,2.28.81,11.16,11.16,0,0,1,2.06,5.11,17.06,17.06,0,0,1-.67,8.56,8.33,8.33,0,0,1-.68,1.54,1.84,1.84,0,0,1-3.06.63c-2.13-1.59-4.24-3.22-6.36-4.83-1.33-1-2.66-2-4-3a3.06,3.06,0,0,0-.82-0.29,2.45,2.45,0,0,0-.21.84c0.13,1,.36,2.09.47,3.14a6.31,6.31,0,0,1,0,2,1.4,1.4,0,0,1-2.48.72,5.65,5.65,0,0,1-1.5-3.27c-0.11-.53-0.19-1.06-0.28-1.58v-3.68Z" transform="translate(-403.64 -281.91)"/><path class="cls-1" d="M439.86,299.53c-0.19,1.32-.34,2.65-0.58,4a28.75,28.75,0,0,1-2.58,8.24,1.92,1.92,0,0,1-2.16,1.1,1.79,1.79,0,0,1-1.5-1.57,3.85,3.85,0,0,1,.23-1.36c0.67-2.17,1.52-4.31,2-6.52a28.79,28.79,0,0,0-1.58-17.3c-0.2-.5-0.39-1-0.57-1.52a1.84,1.84,0,0,1,1-2.46,1.8,1.8,0,0,1,2.49.91,28.26,28.26,0,0,1,2.63,8.3c0.23,1.31.39,2.64,0.57,4v4.24Z" transform="translate(-403.64 -281.91)"/><path class="cls-1" d="M432.11,297.5a23.81,23.81,0,0,1-2.47,11,2,2,0,0,1-2.91.83,1.87,1.87,0,0,1-.63-2.32c0.53-1.55,1.2-3.07,1.58-4.66a21.62,21.62,0,0,0-1.16-13.49c-0.18-.43-0.36-0.87-0.5-1.32a1.86,1.86,0,0,1,1.07-2.32,1.73,1.73,0,0,1,2.41.81,27.07,27.07,0,0,1,1.81,4.79A46.74,46.74,0,0,1,432.11,297.5Z" transform="translate(-403.64 -281.91)"/></svg>