<svg id="Layer_1" data-name="Layer 1" xmlns="http://www.w3.org/2000/svg" viewBox="0 0 125.31 125.35"><defs><style>.cls-1{fill:#3d464d;}</style></defs><title>sms</title><path class="cls-1" d="M247.63,451.6h46l39.2,32.17V451.6H347a13.08,13.08,0,0,0,13-13.18V371.6a13.08,13.08,0,0,0-13-13.18h-99.4a13.08,13.08,0,0,0-13,13.18v66.82a13.08,13.08,0,0,0,13,13.18h0Zm80.12-43.51c-5-1.7-7-4.44-6.94-7.33,0-4.54,3.89-8,9.93-8a16.37,16.37,0,0,1,6.89,1.4l-1.35,5.24A12,12,0,0,0,331,398c-1.85,0-2.89.75-2.89,2s0.95,1.75,3.94,2.79c4.64,1.59,6.59,3.94,6.64,7.53,0,4.54-3.59,7.88-10.58,7.88a17.26,17.26,0,0,1-7.88-1.69l1.35-5.44a14.81,14.81,0,0,0,6.54,1.85c2.3,0,3.24-.8,3.24-2s-0.75-1.85-3.59-2.8h0Zm-42.85-14.77,0.35,3.29h0.15a8.46,8.46,0,0,1,7.38-3.84,6.91,6.91,0,0,1,6.68,4.14h0.1a10.89,10.89,0,0,1,3.14-2.94,8.8,8.8,0,0,1,4.64-1.2c4.69,0,8.23,3.29,8.23,10.57v14.37h-7.38V404.45c0-3.54-1.15-5.59-3.59-5.59a3.71,3.71,0,0,0-3.49,2.65,6.36,6.36,0,0,0-.3,1.95v14.27h-7.38V404.05c0-3.09-1.1-5.19-3.5-5.19a3.86,3.86,0,0,0-3.54,2.75,5,5,0,0,0-.3,1.9v14.22h-7.38V401.11c0-3-.1-5.64-0.2-7.78h6.39Zm-21.7,14.77c-5-1.7-7-4.44-6.94-7.33,0-4.54,3.89-8,9.93-8a16.36,16.36,0,0,1,6.89,1.4l-1.35,5.24a12,12,0,0,0-5.29-1.4c-1.85,0-2.89.75-2.89,2s0.95,1.75,3.94,2.79c4.64,1.59,6.59,3.94,6.64,7.53,0,4.54-3.59,7.88-10.58,7.88a17.26,17.26,0,0,1-7.88-1.69l1.35-5.44a14.81,14.81,0,0,0,6.54,1.85c2.29,0,3.24-.8,3.24-2s-0.75-1.85-3.59-2.8h0Zm0,0" transform="translate(-234.68 -358.42)"/></svg>